<?xml version="1.0" encoding="iso-8859-1"?>
<!-- Uploaded to: SVG Repo, www.svgrepo.com, Generator: SVG Repo Mixer Tools -->
<svg height="800px" width="800px" version="1.1" id="Layer_1" xmlns="http://www.w3.org/2000/svg" xmlns:xlink="http://www.w3.org/1999/xlink" 
	 viewBox="0 0 512.002 512.002" xml:space="preserve">
<path style="fill:#AEB2D3;" d="M253.847,430.63l-89.033,0.263l-0.395-0.263c-11.079,16.551-17.705,36.322-18.128,57.604
	c10.406,4.932,21.215,9.148,32.354,12.61c3.149,0.979,6.326,1.895,9.528,2.75c0.42,0.112,0.842,0.222,1.263,0.332
	c20.562,5.374,42.153,8.185,64.414,8.038l32.301-81.333h-32.303V430.63z"/>
<path style="fill:#959BC9;" d="M171.544,421.123c-15.342,18.221-24.746,41.59-25.254,67.112c10.406,4.932,21.215,9.148,32.354,12.61
	c3.149,0.979,6.326,1.895,9.528,2.75c0.42,0.112,0.842,0.222,1.263,0.332l-0.14-18.387
	C189.116,462.027,182.664,440.032,171.544,421.123z"/>
<path style="fill:#797DAF;" d="M281.191,451.465c-3.584-0.032-7.051,0.436-10.337,1.338c-11.265,3.092-23.096,3.183-34.408,0.263
	c-3.3-0.852-6.773-1.267-10.357-1.181c-20.385,0.491-36.91,18.345-36.755,38.735l0.002,0.301l0.099,13.003
	c20.639,5.394,42.314,8.208,64.665,8.038s43.981-3.315,64.535-9.023l-0.099-13.003l-0.002-0.303
	C318.378,469.244,301.582,451.645,281.191,451.465z"/>
<path style="fill:#656890;" d="M335.261,419.874c-5.694-6.556-12.163-12.415-19.269-17.435
	c-17.76-12.548-39.474-19.853-62.878-19.674s-45.004,7.815-62.57,20.632c-7.028,5.128-13.408,11.086-19,17.727
	c-2.549,3.028-4.917,6.209-7.125,9.507l0.395,0.263c2.13,1.528,4.287,3.001,6.467,4.425c3.209,2.096,6.471,4.074,9.781,5.93
	c2.73,1.532,5.49,2.988,8.283,4.347c5.625,2.736,11.318,5.094,17.067,7.098c13.073,4.555,26.434,7.212,39.945,7.928
	c2.493,0.132,4.989,0.207,7.491,0.207c0.001,0,0.002,0,0.003,0v51.135c0.084,0,0.167,0.001,0.251,0
	c22.351-0.17,43.981-3.314,64.535-9.023c0.42-0.116,0.84-0.231,1.258-0.351c3.188-0.903,6.35-1.868,9.485-2.895
	c5.458-1.788,10.822-3.779,16.105-5.927c3.225-1.31,6.427-2.666,9.582-4.109c2.173-0.994,4.332-2.012,6.471-3.066
	C360.639,461.081,350.878,437.858,335.261,419.874z"/>
<path style="fill:#535572;" d="M335.261,419.874c-2.947,5.19-5.539,10.605-7.754,16.21c-5.93,14.995-9.141,31.354-9.011,48.47
	l0.14,18.387c0.42-0.116,0.84-0.231,1.258-0.351c3.188-0.903,6.35-1.869,9.485-2.895c5.458-1.788,10.822-3.779,16.105-5.927
	c3.225-1.31,6.427-2.666,9.582-4.109c2.173-0.994,4.332-2.012,6.471-3.066C360.639,461.081,350.878,437.858,335.261,419.874z"/>
<g>
	<circle style="opacity:0.3;fill:#D9B43A;enable-background:new    ;" cx="189.242" cy="429.064" r="16.15"/>
	<path style="opacity:0.3;fill:#D9B43A;enable-background:new    ;" d="M173.096,461.365c0-8.919-7.231-16.15-16.15-16.15
		c-0.245,0-0.486,0.026-0.728,0.037c-4.225,9.111-7.213,18.905-8.747,29.173c2.664,1.936,5.93,3.091,9.475,3.091
		C165.866,477.516,173.096,470.285,173.096,461.365z"/>
	<circle style="opacity:0.3;fill:#D9B43A;enable-background:new    ;" cx="253.843" cy="429.064" r="16.15"/>
	<circle style="opacity:0.3;fill:#D9B43A;enable-background:new    ;" cx="253.843" cy="493.666" r="16.15"/>
	<circle style="opacity:0.3;fill:#D9B43A;enable-background:new    ;" cx="221.543" cy="461.365" r="16.15"/>
	<circle style="opacity:0.3;fill:#D9B43A;enable-background:new    ;" cx="318.445" cy="429.064" r="16.15"/>
	<circle style="opacity:0.3;fill:#D9B43A;enable-background:new    ;" cx="286.144" cy="461.365" r="16.15"/>
	<path style="opacity:0.3;fill:#D9B43A;enable-background:new    ;" d="M350.75,445.215c-8.919,0-16.15,7.231-16.15,16.15
		s7.231,16.15,16.15,16.15c3.613,0,6.937-1.201,9.628-3.205c-1.536-10.229-4.503-19.98-8.701-29.048
		C351.369,445.244,351.064,445.215,350.75,445.215z"/>
	<path style="opacity:0.3;fill:#D9B43A;enable-background:new    ;" d="M205.396,493.666c0-8.919-7.231-16.15-16.15-16.15
		c-8.919,0-16.15,7.231-16.15,16.15c0,2.021,0.378,3.952,1.058,5.732c1.491,0.494,2.987,0.978,4.49,1.445
		c3.149,0.979,6.326,1.895,9.528,2.75c0.42,0.112,0.842,0.222,1.263,0.332c3.261,0.853,6.553,1.633,9.865,2.355
		C203.01,503.324,205.396,498.779,205.396,493.666z"/>
	<path style="opacity:0.3;fill:#D9B43A;enable-background:new    ;" d="M318.449,477.516c-8.919,0-16.15,7.231-16.15,16.15
		c0,4.79,2.093,9.083,5.408,12.036c3.674-0.842,7.318-1.76,10.927-2.763c0.42-0.116,0.84-0.231,1.258-0.351
		c3.188-0.903,6.35-1.868,9.485-2.895c1.535-0.503,3.062-1.026,4.582-1.56c0.411-1.419,0.641-2.916,0.641-4.467
		C334.6,484.747,327.37,477.516,318.449,477.516z"/>
</g>
<circle style="fill:#BD7155;" cx="94.492" cy="83.445" r="75.369"/>
<path style="opacity:0.5;fill:#CE9276;enable-background:new    ;" d="M79.537,9.566c-29.622,5.966-52.952,29.297-58.918,58.918
	c5.324,20.976,24.329,36.495,46.96,36.495c26.759,0,48.451-21.692,48.451-48.451C116.031,33.895,100.512,14.891,79.537,9.566z"/>
<circle style="fill:#BD7155;" cx="417.501" cy="83.445" r="75.369"/>
<path style="opacity:0.5;fill:#CE9276;enable-background:new    ;" d="M402.546,9.566c-29.622,5.966-52.952,29.297-58.918,58.918
	c5.324,20.976,24.329,36.495,46.961,36.495c26.759,0,48.451-21.692,48.451-48.451C439.039,33.895,423.521,14.891,402.546,9.566z"/>
<path style="fill:#B8B7AC;" d="M420.734,215.879c-7.899,0-15.348,1.903-21.938,5.255c-16.101-60.901-64.174-116-123.346-127.052
	l-75.509,329.729c16.739,8.143,34.91,12.79,53.905,12.79c68.86,0,126.933-60.907,144.952-129.074
	c6.587,3.352,14.037,5.254,21.936,5.254c26.759,0,48.451-21.692,48.451-48.451S447.494,215.879,420.734,215.879z"/>
<path style="fill:#E7E4CD;" d="M275.451,94.082c-7.057-1.318-14.267-2.023-21.604-2.023c-68.86,0-126.933,60.907-144.952,129.074
	c-6.587-3.352-14.037-5.254-21.936-5.254c-26.759,0-48.451,21.692-48.451,48.451s21.692,48.451,48.451,48.451
	c7.903,0,15.356-1.904,21.946-5.26c13.05,49.361,47.093,94.913,91.037,116.29c7.057,1.318,14.267,2.023,21.604,2.023
	c83.25,0,150.737-89.021,150.737-172.271C372.283,189.309,332.075,121.628,275.451,94.082z"/>
<circle style="fill:#A4A49E;" cx="420.731" cy="264.33" r="16.15"/>
<circle style="fill:#C1BDAB;" cx="86.956" cy="264.33" r="16.15"/>
<path style="fill:#8D472E;" d="M253.848,256.255c-13.359,0-24.226,10.867-24.226,24.226c0,13.359,10.867,24.226,24.226,24.226
	c13.359,0,24.226-10.867,24.226-24.226S267.206,256.255,253.848,256.255z"/>
<path style="fill:#AB5034;" d="M244.696,282.634c-4.453,0-8.075-3.622-8.075-8.075c0-4.453,3.622-8.075,8.075-8.075
	s8.075,3.622,8.075,8.075S249.149,282.634,244.696,282.634z"/>
<path style="fill:#BD7155;" d="M380.399,79.561c-21.923-14.731-48.253-25.688-77.343-31.571c-3.786-0.766-7.67-1.153-11.543-1.153
	c-14.339,0-27.55,5.152-37.665,13.555c-10.114-8.403-23.324-13.555-37.664-13.555c-3.873,0-7.759,0.388-11.543,1.153
	c-29.091,5.883-55.421,16.84-77.343,31.571c-25.359,17.04-40.336,45.798-40.336,76.351v59.967h0.152
	c7.898,0,15.347,1.901,21.936,5.254c5.913,3.008,11.131,7.186,15.334,12.242l0,0c1.665-6.211,8.619-9.284,14.401-6.518
	c25.624,12.257,53.495,20.561,82.825,24.145c8.406,1.027,16.182-4.613,17.816-12.921l14.423-73.345l14.459,73.515
	c1.626,8.267,9.337,13.912,17.705,12.934c29.706-3.469,57.933-11.781,83.867-24.133c5.509-2.624,12.05,0.334,13.705,6.208
	l0.032,0.115c4.203-5.056,9.421-9.233,15.334-12.242c6.545-3.33,13.942-5.225,21.784-5.249v-0.183v-59.788
	C420.736,125.36,405.759,96.602,380.399,79.561z"/>
<g>
	<path style="opacity:0.5;fill:#CE9276;enable-background:new    ;" d="M379.931,79.247c-18.731-12.505-40.654-22.264-64.749-28.472
		c-0.111-0.028-0.234-0.058-0.368-0.089c-11.038-2.569-20.845,7.581-18.07,18.57l8.516,33.729
		c9.059,35.883,32.162,66.617,64.113,85.294l0,0c11.459,6.698,25.05,8.75,37.976,5.733l0.2-0.046l0,0
		c7.718-1.769,13.19-8.637,13.19-16.555v-21.496C420.736,125.16,405.508,96.322,379.931,79.247z"/>
	<path style="opacity:0.5;fill:#CE9276;enable-background:new    ;" d="M216.184,46.837c-3.873,0-7.759,0.388-11.543,1.153
		c-29.09,5.883-55.421,16.84-77.343,31.571c-25.359,17.04-40.337,45.798-40.337,76.352l0.073,17.314
		c0.045,10.759,7.573,20.036,18.093,22.296l0,0c23.329,5.012,46.226,11.774,68.752,19.642c2.226,0.777,4.462,1.521,6.708,2.233
		c19.291,6.111,39.675-5.604,44.057-25.359c6.921-31.202,17.043-76.833,23.372-105.357c4.486-20.218-10.681-39.691-31.39-39.844
		C216.478,46.838,216.331,46.837,216.184,46.837z"/>
</g>
<path d="M282.398,309.03c-7.608,7.609-17.747,11.799-28.55,11.799s-20.942-4.191-28.55-11.799c-3.154-3.153-8.266-3.154-11.421,0
	c-3.154,3.154-3.154,8.267,0,11.421c10.659,10.659,24.853,16.531,39.971,16.531c15.118,0,29.312-5.871,39.971-16.531
	c3.154-3.154,3.153-8.267,0-11.421C290.664,305.876,285.551,305.876,282.398,309.03z"/>
<path d="M428.811,208.389v-52.476c0-33.532-16.414-64.579-43.908-83.054c-9.046-6.079-18.824-11.507-29.133-16.231
	c10.57-24.474,34.551-40.476,61.736-40.476c37.105,0,67.293,30.188,67.293,67.293c0,25.321-13.999,48.257-36.534,59.858
	c-1.47,0.756-2.988,1.468-4.512,2.114c-4.105,1.741-6.023,6.481-4.282,10.587c1.304,3.077,4.294,4.925,7.438,4.925
	c1.051,0,2.12-0.207,3.148-0.643c1.892-0.802,3.776-1.685,5.6-2.624c27.938-14.381,45.293-42.82,45.293-74.218
	C500.949,37.432,463.516,0,417.505,0c-33.794,0-63.594,19.947-76.649,50.43c-11.615-4.349-23.754-7.838-36.201-10.355
	c-4.31-0.872-8.732-1.314-13.144-1.314c-13.476,0-26.628,4.062-37.664,11.542c-11.036-7.48-24.188-11.542-37.665-11.542
	c-4.411,0-8.833,0.443-13.144,1.314c-11.136,2.252-22.029,5.277-32.519,9.003C157.137,19.417,127.56,0.001,94.497,0.001
	c-46.012,0-83.444,37.432-83.444,83.444c0,33.178,19.65,63.203,50.06,76.491c1.053,0.46,2.149,0.677,3.229,0.677
	c3.113,0,6.078-1.81,7.403-4.844c1.786-4.086-0.08-8.847-4.167-10.632c-24.527-10.717-40.376-34.932-40.376-61.691
	c0-37.105,30.188-67.293,67.293-67.293c26.399,0,50.047,15.347,60.987,38.868c-11.627,5.083-22.608,11.063-32.693,17.84
	c-27.493,18.474-43.908,49.523-43.908,83.054v35.201c0,4.46,3.616,8.075,8.075,8.075c4.46,0,8.075-3.616,8.075-8.075v-35.201
	c0-28.143,13.744-54.179,36.765-69.649c21.316-14.323,47.057-24.821,74.44-30.359c3.259-0.659,6.604-0.993,9.943-0.993
	c10.65,0,21.018,3.342,29.59,9.459v58.911c0,4.46,3.616,8.075,8.075,8.075s8.075-3.616,8.075-8.075V64.371
	c8.574-6.117,18.942-9.459,29.592-9.459c3.339,0,6.684,0.335,9.943,0.993c27.383,5.537,53.124,16.035,74.441,30.359
	c23.021,15.469,36.765,41.506,36.765,69.649v52.509c-6.034,0.878-11.853,2.707-17.37,5.514c-6.458,3.286-12.12,7.707-16.876,13.127
	c-2.367,1.978-3.492,5.225-2.601,8.386l0.032,0.115c0.002,0.006,0.005,0.012,0.006,0.018c0.111,0.393,0.259,0.775,0.43,1.15
	c0.027,0.06,0.053,0.121,0.082,0.18c0.167,0.343,0.36,0.676,0.577,0.997c0.043,0.064,0.089,0.125,0.135,0.187
	c0.209,0.289,0.434,0.567,0.684,0.83c0.025,0.027,0.047,0.056,0.073,0.083c0.195,0.2,0.402,0.392,0.621,0.575
	c0.05,0.041,0.104,0.068,0.154,0.107c0.223,0.177,0.46,0.332,0.7,0.483c0.151,0.096,0.297,0.2,0.452,0.285
	c0.24,0.13,0.492,0.234,0.743,0.339c0.163,0.068,0.321,0.151,0.488,0.208c0.305,0.106,0.621,0.177,0.938,0.244
	c0.116,0.025,0.228,0.067,0.345,0.086c0.439,0.074,0.886,0.115,1.338,0.115c0.046,0,0.094-0.009,0.14-0.01
	c0.282-0.005,0.563-0.024,0.844-0.058c0.11-0.014,0.22-0.036,0.329-0.054c0.239-0.039,0.475-0.088,0.71-0.149
	c0.057-0.015,0.115-0.019,0.172-0.036c0.061-0.017,0.117-0.042,0.178-0.06c0.135-0.041,0.267-0.086,0.401-0.135
	c0.137-0.05,0.27-0.102,0.403-0.158c0.124-0.053,0.245-0.108,0.366-0.167c0.139-0.068,0.275-0.14,0.409-0.215
	c0.108-0.06,0.215-0.121,0.322-0.187c0.146-0.092,0.287-0.189,0.427-0.29c0.087-0.062,0.176-0.122,0.261-0.188
	c0.174-0.136,0.339-0.28,0.501-0.429c0.046-0.042,0.095-0.08,0.14-0.124c0.21-0.202,0.408-0.415,0.594-0.637
	c0.005-0.006,0.013-0.013,0.018-0.019c3.54-4.257,7.843-7.692,12.788-10.208c5.661-2.88,11.766-4.352,18.147-4.371
	c0.017,0,0.034-0.002,0.053-0.003c22.228,0.041,40.301,18.136,40.301,40.374c0,22.264-18.112,40.376-40.376,40.376
	c-4.293,0-8.46-0.674-12.46-1.979c2.903-12.902,4.384-25.788,4.384-38.397c0-4.453,3.622-8.075,8.075-8.075
	c4.453,0,8.075,3.622,8.075,8.075c0,4.46,3.616,8.075,8.075,8.075c4.46,0,8.075-3.616,8.075-8.075
	c0-13.359-10.867-24.226-24.226-24.226s-24.226,10.867-24.226,24.226c0,13.413-1.844,27.21-5.481,41.01
	c-0.004,0.015-0.005,0.03-0.01,0.045c-0.008,0.027-0.018,0.053-0.026,0.08C375.226,365.122,321.8,428.526,253.85,428.526
	c-17.089,0-34.036-4.029-50.372-11.976c-40.625-19.763-73.87-62.331-86.762-111.092c-0.02-0.078-0.052-0.151-0.074-0.227
	c-3.618-13.762-5.455-27.523-5.455-40.9c0-13.359-10.867-24.226-24.226-24.226s-24.226,10.867-24.226,24.226
	c0,4.46,3.616,8.075,8.075,8.075s8.075-3.616,8.075-8.075c0-4.453,3.622-8.075,8.075-8.075c4.453,0,8.075,3.622,8.075,8.075
	c0,12.609,1.483,25.495,4.384,38.397c-3.998,1.305-8.166,1.979-12.458,1.979c-22.264,0-40.376-18.112-40.376-40.376
	c0-22.264,18.112-40.376,40.376-40.376h0.15c6.418,0,12.566,1.473,18.273,4.376c4.945,2.516,9.248,5.951,12.788,10.207
	c1.929,2.319,4.993,3.371,7.938,2.724c2.948-0.646,5.289-2.882,6.07-5.797c0.206-0.767,0.736-1.152,1.146-1.34
	c0.368-0.17,1.115-0.393,1.97,0.016c0.002,0.001,0.003,0.001,0.005,0.002c17.049,8.155,34.819,14.497,53.103,18.977
	c-2.806,2.905-4.539,6.853-4.539,11.211c0,8.919,7.231,16.15,16.15,16.15s16.15-7.231,16.15-16.15c0-2.146-0.427-4.189-1.188-6.063
	c1.879,0.269,3.762,0.52,5.649,0.75c3.438,0.419,6.807,0.061,9.949-0.901c-5.585,5.809-9.028,13.69-9.028,22.365
	c0,17.811,14.49,32.301,32.301,32.301s32.301-14.49,32.301-32.301c0-6.733-2.06-13.19-5.955-18.675
	c-2.583-3.635-7.625-4.489-11.26-1.907c-3.635,2.582-4.489,7.624-1.907,11.26c1.945,2.736,2.972,5.96,2.972,9.321
	c0,8.905-7.245,16.15-16.15,16.15s-16.15-7.245-16.15-16.15c0-8.905,7.245-16.15,16.15-16.15c4.46,0,8.075-3.616,8.075-8.075
	c0-4.46-3.616-8.075-8.075-8.075c-4.093,0-8.006,0.773-11.612,2.167c2.498-3.012,4.311-6.645,5.111-10.71l6.502-33.057l6.536,33.228
	c2.244,11.411,12.402,19.558,23.787,19.558c0.919,0,1.847-0.053,2.778-0.161c1.902-0.222,3.802-0.472,5.698-0.732
	c-0.708,1.817-1.112,3.789-1.112,5.858c0,8.919,7.231,16.15,16.15,16.15s16.15-7.231,16.15-16.15c0-4.225-1.635-8.059-4.292-10.937
	c13.128-3.162,26.012-7.281,38.537-12.339c4.136-1.67,6.134-6.376,4.464-10.512c-1.67-4.136-6.377-6.135-10.512-4.464
	c-21.418,8.649-43.944,14.398-66.958,17.085c-4.148,0.479-8.035-2.358-8.845-6.472l-14.459-73.515
	c-0.744-3.787-4.065-6.517-7.923-6.517s-7.178,2.73-7.923,6.517l-14.424,73.343c-0.814,4.137-4.728,6.977-8.914,6.464
	c-27.959-3.416-54.98-11.293-80.316-23.412c-0.001,0-0.002-0.001-0.003-0.002c-0.014-0.006-0.028-0.011-0.041-0.017
	c-0.25-0.117-0.503-0.222-0.757-0.312c-4.779-2.02-10.155-1.97-14.894,0.211c-1.05,0.483-2.04,1.057-2.963,1.714
	c-3.323-2.81-6.967-5.228-10.902-7.231c-8.002-4.069-16.613-6.132-25.602-6.132h-0.15c-31.169,0-56.527,25.357-56.527,56.527
	s25.357,56.527,56.527,56.527c5.733,0,11.314-0.84,16.679-2.503c11.904,37.79,35.094,71.596,64.203,94.625
	c-18.452,20.426-28.928,46.454-29.692,74.219c-0.123,4.459,3.392,8.172,7.85,8.295c0.076,0.002,0.152,0.003,0.226,0.003
	c4.356,0,7.947-3.471,8.068-7.852c0.511-18.57,6.089-36.229,15.999-51.433c7.041,15.427,10.794,32.28,10.925,49.391
	c0.002,0.269,0.017,0.535,0.045,0.796l0.095,17.573c0.024,4.445,3.635,8.031,8.074,8.031c0.015,0,0.03,0,0.045,0
	c4.46-0.024,8.056-3.659,8.031-8.119l-0.099-18.387c-0.001-0.29-0.018-0.575-0.051-0.857c-0.296-21.59-5.692-42.797-15.647-61.796
	c4.785,3.034,9.688,5.793,14.699,8.23c18.555,9.027,37.879,13.604,57.436,13.604c25.084,0,49.559-7.429,72.062-21.7
	c-9.909,18.963-15.28,40.119-15.577,61.657c-0.031,0.283-0.048,0.571-0.051,0.862l-0.099,18.387
	c-0.024,4.46,3.571,8.095,8.031,8.119c0.015,0,0.029,0,0.045,0c4.439,0,8.05-3.586,8.074-8.031l0.095-17.568
	c0.028-0.263,0.044-0.53,0.045-0.8c0.13-17.115,3.886-33.972,10.93-49.402c9.912,15.201,15.486,32.86,15.998,51.443
	c0.121,4.382,3.711,7.852,8.068,7.852c0.075,0,0.151-0.001,0.226-0.003c4.458-0.123,7.973-3.836,7.85-8.295
	c-0.764-27.762-11.222-53.755-29.651-74.17c3.742-2.967,7.415-6.136,11.014-9.503c24.279-22.719,42.94-52.691,53.163-85.167
	c5.361,1.661,10.937,2.499,16.666,2.499c31.169,0,56.527-25.357,56.527-56.527C477.264,235.903,456.169,212.32,428.811,208.389z"/>
<path d="M176.328,277.789h-10.767c-4.461,0-8.075,3.616-8.075,8.075c0,4.46,3.614,8.075,8.075,8.075h10.767
	c4.461,0,8.075-3.616,8.075-8.075C184.403,281.404,180.789,277.789,176.328,277.789z"/>
<path d="M331.372,277.789c-4.461,0-8.075,3.616-8.075,8.075c0,4.46,3.614,8.075,8.075,8.075h10.767c4.461,0,8.075-3.616,8.075-8.075
	c0-4.46-3.614-8.075-8.075-8.075H331.372z"/>
</svg>