<svg xmlns="http://www.w3.org/2000/svg" xmlns:xlink="http://www.w3.org/1999/xlink" width="100" zoomAndPan="magnify" viewBox="0 0 75 36.000001" height="48" preserveAspectRatio="xMidYMid meet" version="1.0"><defs><g/></defs><g fill="#ffffff" fill-opacity="1"><g transform="translate(2.764864, 18.765022)"><g><path d="M 9.308594 -2.339844 C 8.757812 -0.988281 7.550781 -0.199219 6.363281 -0.199219 C 5.320312 -0.199219 4.589844 -0.769531 4.207031 -1.28125 C 3.472656 -2.265625 3.457031 -3.328125 3.457031 -4.699219 L 3.457031 -7.535156 C 3.457031 -9.289062 3.75 -10.183594 4.316406 -10.824219 C 4.847656 -11.429688 5.523438 -11.777344 6.382812 -11.777344 C 7.316406 -11.777344 8.082031 -11.355469 8.558594 -10.699219 C 9.125 -9.929688 9.308594 -9.105469 9.308594 -7.386719 Z M 11.484375 -6.601562 C 11.484375 -8.355469 11.101562 -9.492188 10.09375 -10.585938 C 9.160156 -11.59375 7.734375 -12.160156 6.382812 -12.160156 C 4.167969 -12.160156 2.175781 -10.753906 1.554688 -8.703125 C 1.335938 -8.007812 1.28125 -7.441406 1.28125 -6.65625 L 1.28125 -5.320312 C 1.28125 -3.730469 1.71875 -2.46875 2.597656 -1.480469 C 3.472656 -0.492188 4.847656 0.183594 6.273438 0.183594 C 7.570312 0.183594 8.757812 -0.546875 9.324219 -1.519531 L 9.324219 0 L 12.746094 0 L 12.746094 -0.382812 L 11.484375 -0.382812 Z M 11.484375 -6.601562 "/></g></g></g><g fill="#ffffff" fill-opacity="1"><g transform="translate(16.179928, 18.765022)"><g><path d="M 2.324219 -11.996094 L 1.0625 -11.996094 L 1.0625 -11.613281 L 2.324219 -11.613281 L 2.324219 -0.382812 L 1.0625 -0.382812 L 1.0625 0 L 5.886719 0 L 5.886719 -0.382812 L 4.5 -0.382812 L 4.5 -11.613281 L 6.566406 -11.613281 L 6.566406 -11.996094 L 4.5 -11.996094 L 4.5 -14.097656 C 4.5 -15.269531 4.625 -15.746094 4.972656 -16.148438 C 5.25 -16.457031 5.578125 -16.605469 6.054688 -16.605469 C 6.253906 -16.605469 6.4375 -16.566406 6.582031 -16.496094 C 5.941406 -16.347656 5.558594 -15.871094 5.558594 -15.25 C 5.558594 -14.539062 6.089844 -14.007812 6.839844 -14.007812 C 7.550781 -14.007812 8.082031 -14.539062 8.082031 -15.269531 C 8.082031 -16.257812 7.113281 -16.988281 5.886719 -16.988281 C 3.382812 -16.988281 2.324219 -15.140625 2.324219 -12.746094 Z M 2.324219 -11.996094 "/></g></g></g><g fill="#ffffff" fill-opacity="1"><g transform="translate(23.344379, 18.765022)"><g><path d="M 4.445312 -11.996094 L 1.003906 -11.996094 L 1.003906 -11.613281 L 2.265625 -11.613281 L 2.265625 -0.382812 L 1.003906 -0.382812 L 1.003906 0 L 5.816406 0 L 5.816406 -0.382812 L 4.445312 -0.382812 L 4.445312 -10.039062 C 5.011719 -11.0625 5.960938 -11.757812 6.710938 -11.757812 C 6.894531 -11.757812 7.023438 -11.722656 7.058594 -11.703125 C 6.472656 -11.628906 6.035156 -11.101562 6.035156 -10.476562 C 6.035156 -9.746094 6.582031 -9.199219 7.316406 -9.199219 C 8.0625 -9.199219 8.613281 -9.78125 8.613281 -10.550781 C 8.613281 -11.464844 7.863281 -12.160156 6.839844 -12.160156 C 5.886719 -12.160156 4.957031 -11.503906 4.445312 -10.679688 Z M 4.445312 -11.996094 "/></g></g></g><g fill="#ffffff" fill-opacity="1"><g transform="translate(31.952686, 18.765022)"><g><path d="M 4.625 -15.011719 C 4.625 -15.652344 4.097656 -16.183594 3.457031 -16.183594 C 2.816406 -16.183594 2.285156 -15.652344 2.285156 -15.011719 C 2.285156 -14.375 2.816406 -13.84375 3.457031 -13.84375 C 4.097656 -13.84375 4.625 -14.375 4.625 -15.011719 Z M 5.851562 0 L 5.851562 -0.382812 L 4.625 -0.382812 L 4.625 -11.996094 L 1.1875 -11.996094 L 1.1875 -11.613281 L 2.449219 -11.613281 L 2.449219 -0.382812 L 1.1875 -0.382812 L 1.1875 0 Z M 5.851562 0 "/></g></g></g><g fill="#ffffff" fill-opacity="1"><g transform="translate(38.897819, 18.765022)"><g><path d="M 5.761719 -15.011719 C 5.761719 -15.652344 5.230469 -16.183594 4.589844 -16.183594 C 3.949219 -16.183594 3.417969 -15.652344 3.417969 -15.011719 C 3.417969 -14.375 3.949219 -13.84375 4.589844 -13.84375 C 5.230469 -13.84375 5.761719 -14.375 5.761719 -15.011719 Z M 5.761719 -11.996094 L 2.195312 -11.996094 L 2.195312 -11.613281 L 3.585938 -11.613281 L 3.585938 2.101562 C 3.585938 3.273438 3.457031 3.75 3.109375 4.152344 C 2.835938 4.460938 2.503906 4.609375 2.03125 4.609375 C 1.828125 4.609375 1.644531 4.570312 1.5 4.5 C 2.140625 4.351562 2.523438 3.875 2.523438 3.253906 C 2.523438 2.542969 1.992188 2.011719 1.242188 2.011719 C 0.53125 2.011719 0 2.542969 0 3.273438 C 0 4.261719 0.96875 4.992188 2.195312 4.992188 C 4.699219 4.992188 5.761719 3.144531 5.761719 0.75 Z M 5.761719 -11.996094 "/></g></g></g><g fill="#ffffff" fill-opacity="1"><g transform="translate(46.208486, 18.765022)"><g><path d="M 11.390625 -6.601562 C 11.390625 -8.355469 11.007812 -9.492188 10.003906 -10.585938 C 9.070312 -11.59375 7.644531 -12.160156 6.289062 -12.160156 C 4.078125 -12.160156 2.085938 -10.753906 1.464844 -8.703125 C 1.242188 -8.007812 1.1875 -7.441406 1.1875 -6.65625 L 1.1875 -5.375 C 1.1875 -3.621094 1.574219 -2.488281 2.578125 -1.390625 C 3.511719 -0.382812 4.9375 0.183594 6.289062 0.183594 C 8.503906 0.183594 10.496094 -1.226562 11.117188 -3.273438 C 11.335938 -3.96875 11.390625 -4.535156 11.390625 -5.320312 Z M 9.214844 -4.445312 C 9.214844 -2.6875 8.921875 -1.792969 8.355469 -1.152344 C 7.828125 -0.546875 7.148438 -0.199219 6.289062 -0.199219 C 5.359375 -0.199219 4.589844 -0.621094 4.113281 -1.28125 C 3.546875 -2.046875 3.363281 -2.871094 3.363281 -4.589844 L 3.363281 -7.535156 C 3.363281 -9.289062 3.65625 -10.183594 4.222656 -10.824219 C 4.753906 -11.429688 5.429688 -11.777344 6.289062 -11.777344 C 7.222656 -11.777344 7.992188 -11.355469 8.464844 -10.699219 C 9.035156 -9.929688 9.214844 -9.105469 9.214844 -7.386719 Z M 9.214844 -4.445312 "/></g></g></g><g fill="#ffffff" fill-opacity="1"><g transform="translate(58.782828, 18.765022)"><g><path d="M 9.964844 -4.589844 C 9.964844 -2.871094 9.78125 -2.046875 9.214844 -1.28125 C 8.742188 -0.621094 7.972656 -0.199219 7.039062 -0.199219 C 6.179688 -0.199219 5.503906 -0.546875 4.972656 -1.152344 C 4.40625 -1.792969 4.113281 -2.6875 4.113281 -4.445312 L 4.113281 -9.636719 C 4.664062 -10.988281 5.871094 -11.777344 7.058594 -11.777344 C 8.101562 -11.777344 8.832031 -11.210938 9.214844 -10.699219 C 9.949219 -9.710938 9.964844 -8.648438 9.964844 -7.277344 Z M 1.9375 -5.320312 C 1.9375 -4.535156 1.992188 -3.96875 2.210938 -3.273438 C 2.835938 -1.226562 4.828125 0.183594 7.039062 0.183594 C 8.394531 0.183594 9.820312 -0.382812 10.753906 -1.390625 C 11.757812 -2.488281 12.140625 -3.621094 12.140625 -5.375 L 12.140625 -6.65625 C 12.140625 -8.246094 11.703125 -9.507812 10.824219 -10.496094 C 9.949219 -11.484375 8.578125 -12.160156 7.148438 -12.160156 C 5.851562 -12.160156 4.679688 -11.429688 4.113281 -10.460938 L 4.113281 -16.824219 L 0.675781 -16.824219 L 0.675781 -16.4375 L 1.9375 -16.4375 Z M 1.9375 -5.320312 "/></g></g></g><g fill="#ffffff" fill-opacity="1"><g transform="translate(8.820719, 29.00195)"><g><path d="M 1.8125 0 L 1.15625 0 L 1.15625 -1.296875 L 0.015625 -3.3125 L 0.71875 -3.3125 L 1.46875 -2.015625 L 1.53125 -2.015625 L 2.265625 -3.3125 L 2.953125 -3.3125 L 1.8125 -1.296875 Z M 1.8125 0 "/></g></g><g transform="translate(11.798406, 29.00195)"><g><path d="M 1.8125 0.046875 C 1.5 0.046875 1.226562 -0.015625 1 -0.140625 C 0.769531 -0.265625 0.585938 -0.453125 0.453125 -0.703125 C 0.328125 -0.960938 0.265625 -1.28125 0.265625 -1.65625 C 0.265625 -2.03125 0.328125 -2.34375 0.453125 -2.59375 C 0.585938 -2.851562 0.769531 -3.046875 1 -3.171875 C 1.226562 -3.296875 1.5 -3.359375 1.8125 -3.359375 C 2.113281 -3.359375 2.378906 -3.296875 2.609375 -3.171875 C 2.835938 -3.046875 3.015625 -2.851562 3.140625 -2.59375 C 3.273438 -2.34375 3.34375 -2.03125 3.34375 -1.65625 C 3.34375 -1.28125 3.273438 -0.960938 3.140625 -0.703125 C 3.015625 -0.453125 2.835938 -0.265625 2.609375 -0.140625 C 2.378906 -0.015625 2.113281 0.046875 1.8125 0.046875 Z M 1.8125 -0.515625 C 2.09375 -0.515625 2.304688 -0.601562 2.453125 -0.78125 C 2.597656 -0.96875 2.671875 -1.257812 2.671875 -1.65625 C 2.671875 -2.050781 2.597656 -2.335938 2.453125 -2.515625 C 2.304688 -2.703125 2.09375 -2.796875 1.8125 -2.796875 C 1.519531 -2.796875 1.300781 -2.703125 1.15625 -2.515625 C 1.007812 -2.335938 0.9375 -2.050781 0.9375 -1.65625 C 0.9375 -1.257812 1.007812 -0.96875 1.15625 -0.78125 C 1.300781 -0.601562 1.519531 -0.515625 1.8125 -0.515625 Z M 1.8125 -0.515625 "/></g></g><g transform="translate(15.411092, 29.00195)"><g><path d="M 1.75 0.046875 C 1.300781 0.046875 0.960938 -0.0625 0.734375 -0.28125 C 0.515625 -0.5 0.40625 -0.816406 0.40625 -1.234375 L 0.40625 -3.3125 L 1.046875 -3.3125 L 1.046875 -1.25 C 1.046875 -1.007812 1.101562 -0.828125 1.21875 -0.703125 C 1.34375 -0.578125 1.519531 -0.515625 1.75 -0.515625 C 2.21875 -0.515625 2.453125 -0.757812 2.453125 -1.25 L 2.453125 -3.3125 L 3.109375 -3.3125 L 3.109375 -1.234375 C 3.109375 -0.816406 2.992188 -0.5 2.765625 -0.28125 C 2.546875 -0.0625 2.207031 0.046875 1.75 0.046875 Z M 1.75 0.046875 "/></g></g><g transform="translate(18.926259, 29.00195)"><g><path d="M 0.4375 0 L 0.4375 -3.3125 L 1.765625 -3.3125 C 2.109375 -3.3125 2.363281 -3.234375 2.53125 -3.078125 C 2.707031 -2.921875 2.796875 -2.703125 2.796875 -2.421875 C 2.796875 -2.222656 2.742188 -2.054688 2.640625 -1.921875 C 2.546875 -1.796875 2.394531 -1.703125 2.1875 -1.640625 L 2.1875 -1.59375 C 2.289062 -1.539062 2.375 -1.46875 2.4375 -1.375 C 2.5 -1.289062 2.5625 -1.160156 2.625 -0.984375 L 2.953125 0 L 2.28125 0 L 1.953125 -0.984375 C 1.921875 -1.085938 1.882812 -1.164062 1.84375 -1.21875 C 1.800781 -1.28125 1.75 -1.320312 1.6875 -1.34375 C 1.625 -1.363281 1.539062 -1.375 1.4375 -1.375 L 1.078125 -1.375 L 1.078125 0 Z M 1.6875 -1.90625 C 2 -1.90625 2.15625 -2.050781 2.15625 -2.34375 C 2.15625 -2.644531 2 -2.796875 1.6875 -2.796875 L 1.078125 -2.796875 L 1.078125 -1.90625 Z M 1.6875 -1.90625 "/></g></g><g transform="translate(22.02641, 29.00195)"><g/></g><g transform="translate(23.121782, 29.00195)"><g><path d="M 1.15625 0.046875 C 0.875 0.046875 0.640625 -0.00390625 0.453125 -0.109375 C 0.273438 -0.210938 0.140625 -0.359375 0.046875 -0.546875 L 0.421875 -0.984375 L 0.484375 -0.984375 C 0.546875 -0.835938 0.628906 -0.722656 0.734375 -0.640625 C 0.847656 -0.554688 0.976562 -0.515625 1.125 -0.515625 C 1.289062 -0.515625 1.410156 -0.5625 1.484375 -0.65625 C 1.566406 -0.757812 1.609375 -0.921875 1.609375 -1.140625 L 1.609375 -3.3125 L 2.265625 -3.3125 L 2.265625 -1.125 C 2.265625 -0.71875 2.171875 -0.421875 1.984375 -0.234375 C 1.804688 -0.046875 1.53125 0.046875 1.15625 0.046875 Z M 1.15625 0.046875 "/></g></g><g transform="translate(25.797845, 29.00195)"><g><path d="M 1.8125 0.046875 C 1.5 0.046875 1.226562 -0.015625 1 -0.140625 C 0.769531 -0.265625 0.585938 -0.453125 0.453125 -0.703125 C 0.328125 -0.960938 0.265625 -1.28125 0.265625 -1.65625 C 0.265625 -2.03125 0.328125 -2.34375 0.453125 -2.59375 C 0.585938 -2.851562 0.769531 -3.046875 1 -3.171875 C 1.226562 -3.296875 1.5 -3.359375 1.8125 -3.359375 C 2.113281 -3.359375 2.378906 -3.296875 2.609375 -3.171875 C 2.835938 -3.046875 3.015625 -2.851562 3.140625 -2.59375 C 3.273438 -2.34375 3.34375 -2.03125 3.34375 -1.65625 C 3.34375 -1.28125 3.273438 -0.960938 3.140625 -0.703125 C 3.015625 -0.453125 2.835938 -0.265625 2.609375 -0.140625 C 2.378906 -0.015625 2.113281 0.046875 1.8125 0.046875 Z M 1.8125 -0.515625 C 2.09375 -0.515625 2.304688 -0.601562 2.453125 -0.78125 C 2.597656 -0.96875 2.671875 -1.257812 2.671875 -1.65625 C 2.671875 -2.050781 2.597656 -2.335938 2.453125 -2.515625 C 2.304688 -2.703125 2.09375 -2.796875 1.8125 -2.796875 C 1.519531 -2.796875 1.300781 -2.703125 1.15625 -2.515625 C 1.007812 -2.335938 0.9375 -2.050781 0.9375 -1.65625 C 0.9375 -1.257812 1.007812 -0.96875 1.15625 -0.78125 C 1.300781 -0.601562 1.519531 -0.515625 1.8125 -0.515625 Z M 1.8125 -0.515625 "/></g></g><g transform="translate(29.41053, 29.00195)"><g><path d="M 0.4375 0 L 0.4375 -3.3125 L 1.84375 -3.3125 C 2.050781 -3.3125 2.222656 -3.28125 2.359375 -3.21875 C 2.503906 -3.15625 2.613281 -3.0625 2.6875 -2.9375 C 2.757812 -2.820312 2.796875 -2.679688 2.796875 -2.515625 C 2.796875 -2.367188 2.757812 -2.238281 2.6875 -2.125 C 2.613281 -2.019531 2.507812 -1.929688 2.375 -1.859375 L 2.375 -1.8125 C 2.582031 -1.757812 2.742188 -1.660156 2.859375 -1.515625 C 2.972656 -1.378906 3.03125 -1.207031 3.03125 -1 C 3.03125 -0.675781 2.929688 -0.425781 2.734375 -0.25 C 2.546875 -0.0820312 2.265625 0 1.890625 0 Z M 1.703125 -1.984375 C 2.015625 -1.984375 2.171875 -2.125 2.171875 -2.40625 C 2.171875 -2.539062 2.128906 -2.644531 2.046875 -2.71875 C 1.972656 -2.789062 1.859375 -2.828125 1.703125 -2.828125 L 1.078125 -2.828125 L 1.078125 -1.984375 Z M 1.828125 -0.515625 C 2.191406 -0.515625 2.375 -0.679688 2.375 -1.015625 C 2.375 -1.335938 2.191406 -1.5 1.828125 -1.5 L 1.078125 -1.5 L 1.078125 -0.515625 Z M 1.828125 -0.515625 "/></g></g><g transform="translate(32.653556, 29.00195)"><g/></g><g transform="translate(33.748928, 29.00195)"><g><path d="M 1.03125 0 L 0.4375 0 L 0.4375 -3.3125 L 1.28125 -3.3125 L 2.125 -0.875 L 2.171875 -0.875 L 3 -3.3125 L 3.84375 -3.3125 L 3.84375 0 L 3.21875 0 L 3.21875 -2.1875 L 3.171875 -2.203125 L 2.40625 0 L 1.859375 0 L 1.09375 -2.203125 L 1.03125 -2.1875 Z M 1.03125 0 "/></g></g><g transform="translate(38.028361, 29.00195)"><g><path d="M 3.171875 0 L 2.484375 0 L 2.234375 -0.765625 L 0.96875 -0.765625 L 0.71875 0 L 0.046875 0 L 1.1875 -3.3125 L 2.03125 -3.3125 Z M 1.578125 -2.625 L 1.15625 -1.3125 L 2.0625 -1.3125 L 1.625 -2.625 Z M 1.578125 -2.625 "/></g></g><g transform="translate(41.260047, 29.00195)"><g><path d="M 0.4375 0 L 0.4375 -3.3125 L 1.765625 -3.3125 C 2.109375 -3.3125 2.363281 -3.234375 2.53125 -3.078125 C 2.707031 -2.921875 2.796875 -2.703125 2.796875 -2.421875 C 2.796875 -2.222656 2.742188 -2.054688 2.640625 -1.921875 C 2.546875 -1.796875 2.394531 -1.703125 2.1875 -1.640625 L 2.1875 -1.59375 C 2.289062 -1.539062 2.375 -1.46875 2.4375 -1.375 C 2.5 -1.289062 2.5625 -1.160156 2.625 -0.984375 L 2.953125 0 L 2.28125 0 L 1.953125 -0.984375 C 1.921875 -1.085938 1.882812 -1.164062 1.84375 -1.21875 C 1.800781 -1.28125 1.75 -1.320312 1.6875 -1.34375 C 1.625 -1.363281 1.539062 -1.375 1.4375 -1.375 L 1.078125 -1.375 L 1.078125 0 Z M 1.6875 -1.90625 C 2 -1.90625 2.15625 -2.050781 2.15625 -2.34375 C 2.15625 -2.644531 2 -2.796875 1.6875 -2.796875 L 1.078125 -2.796875 L 1.078125 -1.90625 Z M 1.6875 -1.90625 "/></g></g><g transform="translate(44.360199, 29.00195)"><g><path d="M 0.4375 0 L 0.4375 -3.3125 L 1.078125 -3.3125 L 1.078125 -1.953125 L 1.15625 -1.953125 L 2.265625 -3.3125 L 2.9375 -3.3125 L 2.9375 -3.25 L 1.71875 -1.75 L 3.0625 -0.0625 L 3.0625 0 L 2.328125 0 L 1.15625 -1.4375 L 1.078125 -1.4375 L 1.078125 0 Z M 0.4375 0 "/></g></g><g transform="translate(47.424064, 29.00195)"><g><path d="M 1.078125 -1.453125 L 1.078125 -0.546875 L 2.671875 -0.546875 L 2.671875 0 L 0.4375 0 L 0.4375 -3.3125 L 2.625 -3.3125 L 2.625 -2.765625 L 1.078125 -2.765625 L 1.078125 -1.984375 L 2.4375 -1.984375 L 2.4375 -1.453125 Z M 1.078125 -1.453125 "/></g></g><g transform="translate(50.274752, 29.00195)"><g><path d="M 2.65625 -3.3125 L 2.65625 -2.765625 L 1.703125 -2.765625 L 1.703125 0 L 1.046875 0 L 1.046875 -2.765625 L 0.09375 -2.765625 L 0.09375 -3.3125 Z M 2.65625 -3.3125 "/></g></g><g transform="translate(53.023386, 29.00195)"><g/></g><g transform="translate(54.118758, 29.00195)"><g><path d="M 1.703125 -3.3125 C 1.941406 -3.3125 2.144531 -3.265625 2.3125 -3.171875 C 2.488281 -3.085938 2.617188 -2.96875 2.703125 -2.8125 C 2.785156 -2.65625 2.828125 -2.472656 2.828125 -2.265625 C 2.828125 -2.066406 2.785156 -1.890625 2.703125 -1.734375 C 2.617188 -1.578125 2.488281 -1.453125 2.3125 -1.359375 C 2.144531 -1.273438 1.941406 -1.234375 1.703125 -1.234375 L 1.078125 -1.234375 L 1.078125 0 L 0.4375 0 L 0.4375 -3.3125 Z M 1.625 -1.75 C 1.988281 -1.75 2.171875 -1.921875 2.171875 -2.265625 C 2.171875 -2.617188 1.988281 -2.796875 1.625 -2.796875 L 1.078125 -2.796875 L 1.078125 -1.75 Z M 1.625 -1.75 "/></g></g><g transform="translate(57.148605, 29.00195)"><g><path d="M 1.078125 -3.3125 L 1.078125 -0.546875 L 2.578125 -0.546875 L 2.578125 0 L 0.4375 0 L 0.4375 -3.3125 Z M 1.078125 -3.3125 "/></g></g><g transform="translate(59.83374, 29.00195)"><g><path d="M 3.171875 0 L 2.484375 0 L 2.234375 -0.765625 L 0.96875 -0.765625 L 0.71875 0 L 0.046875 0 L 1.1875 -3.3125 L 2.03125 -3.3125 Z M 1.578125 -2.625 L 1.15625 -1.3125 L 2.0625 -1.3125 L 1.625 -2.625 Z M 1.578125 -2.625 "/></g></g><g transform="translate(63.065426, 29.00195)"><g><path d="M 1.8125 0.046875 C 1.507812 0.046875 1.238281 -0.015625 1 -0.140625 C 0.769531 -0.265625 0.585938 -0.453125 0.453125 -0.703125 C 0.328125 -0.960938 0.265625 -1.28125 0.265625 -1.65625 C 0.265625 -2.03125 0.328125 -2.34375 0.453125 -2.59375 C 0.585938 -2.851562 0.769531 -3.046875 1 -3.171875 C 1.238281 -3.296875 1.507812 -3.359375 1.8125 -3.359375 C 2.125 -3.359375 2.390625 -3.296875 2.609375 -3.171875 C 2.835938 -3.046875 3 -2.859375 3.09375 -2.609375 L 2.625 -2.3125 L 2.5625 -2.3125 C 2.488281 -2.488281 2.390625 -2.613281 2.265625 -2.6875 C 2.148438 -2.757812 2 -2.796875 1.8125 -2.796875 C 1.53125 -2.796875 1.3125 -2.703125 1.15625 -2.515625 C 1.007812 -2.335938 0.9375 -2.050781 0.9375 -1.65625 C 0.9375 -1.257812 1.007812 -0.96875 1.15625 -0.78125 C 1.3125 -0.601562 1.53125 -0.515625 1.8125 -0.515625 C 2.238281 -0.515625 2.5 -0.722656 2.59375 -1.140625 L 2.65625 -1.140625 L 3.140625 -0.890625 C 3.046875 -0.578125 2.890625 -0.34375 2.671875 -0.1875 C 2.453125 -0.03125 2.164062 0.046875 1.8125 0.046875 Z M 1.8125 0.046875 "/></g></g><g transform="translate(66.317524, 29.00195)"><g><path d="M 1.078125 -1.453125 L 1.078125 -0.546875 L 2.671875 -0.546875 L 2.671875 0 L 0.4375 0 L 0.4375 -3.3125 L 2.625 -3.3125 L 2.625 -2.765625 L 1.078125 -2.765625 L 1.078125 -1.984375 L 2.4375 -1.984375 L 2.4375 -1.453125 Z M 1.078125 -1.453125 "/></g></g></g></svg>